<?xml version="1.0" standalone="no"?>
<!DOCTYPE svg PUBLIC "-//W3C//DTD SVG 20010904//EN"
 "http://www.w3.org/TR/2001/REC-SVG-20010904/DTD/svg10.dtd">
<svg version="1.0" xmlns="http://www.w3.org/2000/svg"
 width="248.000000pt" height="248.000000pt" viewBox="0 0 248.000000 248.000000"
 preserveAspectRatio="xMidYMid meet">
<metadata>
Created by potrace 1.11, written by Peter Selinger 2001-2013
</metadata>
<g transform="translate(0.000000,248.000000) scale(0.100000,-0.100000)"
fill="#000000" stroke="none">
<path d="M1021 2331 c-45 -12 -112 -42 -136 -63 -50 -41 -112 -90 -135 -105
-26 -18 -239 -250 -313 -343 -191 -239 -337 -530 -431 -855 -2 -5 1 -21 5 -34
9 -22 11 -21 67 35 31 32 57 62 57 65 0 4 24 32 53 63 38 41 52 51 52 37 0
-10 -21 -38 -48 -61 -48 -43 -41 -44 14 -3 l32 24 4 -26 c4 -19 -4 -38 -34
-75 -44 -56 -43 -66 15 -117 29 -25 37 -43 60 -139 16 -60 28 -115 29 -121 1
-7 6 -13 11 -13 5 0 7 -7 3 -15 -3 -8 -1 -15 5 -15 6 0 8 -7 5 -16 -4 -10 -2
-13 6 -8 7 5 9 0 6 -14 -4 -12 -2 -22 3 -22 5 0 8 -3 7 -8 -3 -12 55 -132 64
-132 9 0 9 3 14 105 4 115 15 215 23 220 5 2 26 -9 49 -26 42 -31 46 -38 82
-174 12 -44 35 -124 52 -178 29 -94 31 -97 48 -80 9 10 25 40 35 66 10 26 32
69 49 96 l32 48 30 -26 c27 -23 30 -31 26 -66 -2 -22 -9 -46 -14 -53 -7 -8 -6
-17 2 -27 17 -20 40 -19 40 2 0 23 42 83 58 83 7 0 37 -11 65 -24 143 -67 488
-52 641 28 27 14 52 23 56 21 7 -4 18 -51 25 -105 13 -98 34 -148 56 -135 10
7 30 97 36 160 5 68 13 86 23 60 8 -19 9 -19 9 1 1 30 28 38 35 11 3 -12 6
-33 6 -46 0 -16 4 -21 15 -17 10 3 15 -1 16 -12 0 -10 3 -12 6 -4 2 6 9 10 14
6 5 -3 12 9 16 27 l6 31 12 -28 11 -29 44 74 c58 101 124 241 151 325 20 62
27 71 67 95 47 28 179 131 168 131 -4 0 2 13 13 29 23 32 27 46 9 35 -7 -4 -8
-3 -4 4 4 6 14 8 23 5 11 -4 14 -3 9 5 -4 7 -14 12 -22 12 -8 0 -14 8 -14 18
0 14 -2 15 -10 2 -7 -11 -10 -11 -10 -2 0 7 -5 10 -10 7 -6 -4 -9 -1 -8 5 2 6
-24 26 -57 44 l-60 33 -6 174 c-10 272 -48 442 -142 622 -68 132 -144 219
-256 296 -143 97 -129 94 -431 102 -146 4 -294 10 -330 13 -36 3 -80 1 -99 -3z"/>
<path d="M1841 314 c0 -11 3 -14 6 -6 3 7 2 16 -1 19 -3 4 -6 -2 -5 -13z"/>
</g>
</svg>
